<?xml version="1.0" standalone="no"?>
<!DOCTYPE svg PUBLIC "-//W3C//DTD SVG 20010904//EN"
 "http://www.w3.org/TR/2001/REC-SVG-20010904/DTD/svg10.dtd">
<svg version="1.0" xmlns="http://www.w3.org/2000/svg"
 width="1024.000000pt" height="1024.000000pt" viewBox="0 0 1024.000000 1024.000000"
 preserveAspectRatio="xMidYMid meet">
<metadata>
Created by potrace 1.14, written by Peter Selinger 2001-2017
</metadata>
<g transform="translate(0.000000,1024.000000) scale(0.100000,-0.100000)"
fill="#000000" stroke="none">
<path d="M4838 10076 c-1 -2 -48 -6 -103 -10 -208 -13 -461 -47 -675 -91 -14
-3 -37 -7 -51 -10 -151 -28 -585 -159 -714 -215 -11 -5 -65 -28 -120 -51 -197
-82 -448 -212 -638 -331 -82 -51 -251 -162 -271 -179 -6 -5 -63 -48 -126 -96
-63 -48 -117 -89 -120 -92 -3 -4 -32 -28 -65 -56 -188 -155 -442 -405 -615
-605 -36 -41 -67 -77 -70 -80 -3 -3 -23 -27 -45 -55 -21 -27 -42 -52 -45 -55
-35 -33 -275 -382 -357 -520 -50 -85 -193 -348 -193 -355 0 -3 -18 -42 -39
-88 -123 -262 -269 -703 -317 -957 -3 -14 -11 -56 -19 -95 -8 -38 -16 -86 -19
-105 -3 -19 -8 -44 -10 -56 -2 -12 -7 -45 -11 -74 -4 -29 -8 -60 -10 -69 -1
-9 -6 -47 -10 -86 -4 -38 -9 -77 -10 -86 -19 -103 -27 -720 -12 -924 13 -182
23 -280 32 -318 3 -12 7 -40 9 -62 6 -56 26 -177 30 -184 2 -3 7 -26 10 -51
29 -213 181 -714 296 -975 21 -48 182 -375 208 -422 47 -85 211 -345 257 -409
24 -32 54 -74 67 -92 13 -18 30 -41 38 -51 8 -10 26 -33 40 -52 192 -255 527
-602 805 -834 94 -78 91 -76 175 -140 36 -27 71 -55 78 -62 7 -7 17 -13 21
-13 4 0 16 -8 27 -18 33 -29 193 -136 324 -214 424 -255 859 -431 1340 -544
132 -31 338 -71 410 -79 30 -3 66 -8 80 -10 46 -8 204 -24 305 -32 197 -15
770 -8 925 12 14 1 54 6 90 10 233 24 550 87 805 160 132 38 373 119 430 145
11 5 82 36 157 69 362 158 684 354 1033 626 49 38 99 79 111 90 12 11 48 43
80 70 247 211 556 540 747 795 31 41 60 80 65 85 29 35 171 251 236 358 92
153 217 393 276 532 23 55 46 109 51 120 43 97 131 360 174 520 38 141 61 237
80 340 3 17 7 39 10 50 9 43 44 284 51 350 3 39 8 78 10 87 26 142 26 798 -1
1048 -2 25 -7 70 -10 100 -3 30 -8 70 -11 88 -2 17 -6 49 -9 70 -6 47 -16 111
-21 137 -3 11 -7 36 -10 55 -3 19 -9 51 -14 70 -5 19 -11 47 -14 63 -3 15 -7
35 -10 45 -3 9 -7 28 -10 42 -24 135 -154 548 -211 675 -7 17 -23 55 -35 85
-55 140 -229 473 -343 654 -114 183 -317 457 -452 611 -144 164 -351 376 -466
477 -34 29 -73 64 -88 78 -38 36 -130 112 -155 129 -12 8 -23 18 -26 21 -19
25 -362 270 -378 270 -6 0 -12 4 -14 9 -1 5 -68 48 -148 96 -248 148 -592 309
-835 390 -44 15 -87 29 -95 32 -8 4 -17 7 -20 8 -3 0 -36 11 -75 22 -201 62
-486 127 -645 148 -25 3 -52 8 -60 10 -20 5 -96 14 -255 30 -33 3 -80 8 -105
11 -48 6 -696 15 -702 10z"/>
</g>
</svg>
